<svg width="35" height="34" viewBox="0 0 35 34" fill="none" xmlns="http://www.w3.org/2000/svg">
<mask id="mask0_282_1006" style="mask-type:alpha" maskUnits="userSpaceOnUse" x="0" y="0" width="35" height="34">
<rect x="0.799805" y="0.399902" width="33.6" height="33.6" fill="#D9D9D9"/>
</mask>
<g mask="url(#mask0_282_1006)">
<path d="M17.9133 17.8997L21.0983 15.9747L24.2833 17.8997L23.4433 14.2597L26.2433 11.8447L22.5683 11.5297L21.0983 8.09971L19.6283 11.5297L15.9533 11.8447L18.7533 14.2597L17.9133 17.8997ZM18.5783 26.9997H26.4183C26.255 27.6064 25.975 28.0964 25.5783 28.4697C25.1817 28.843 24.6683 29.0764 24.0383 29.1697L8.77833 31.0247C8.00833 31.1414 7.31417 30.9605 6.69583 30.4822C6.0775 30.0039 5.72167 29.3797 5.62833 28.6097L3.77333 13.3147C3.68 12.5447 3.86667 11.8564 4.33333 11.2497C4.8 10.643 5.41833 10.293 6.18833 10.1997L7.79833 9.98971V12.7897L6.53833 12.9647L8.42833 28.2597L18.5783 26.9997ZM13.3983 24.1997C12.6283 24.1997 11.9692 23.9255 11.4208 23.3772C10.8725 22.8289 10.5983 22.1697 10.5983 21.3997V5.99971C10.5983 5.22971 10.8725 4.57054 11.4208 4.02221C11.9692 3.47387 12.6283 3.19971 13.3983 3.19971H28.7983C29.5683 3.19971 30.2275 3.47387 30.7758 4.02221C31.3242 4.57054 31.5983 5.22971 31.5983 5.99971V21.3997C31.5983 22.1697 31.3242 22.8289 30.7758 23.3772C30.2275 23.9255 29.5683 24.1997 28.7983 24.1997H13.3983ZM13.3983 21.3997H28.7983V5.99971H13.3983V21.3997Z" fill="#1F1F1F"/>
</g>
</svg>
