<svg width="35" height="34" viewBox="0 0 35 34" fill="none" xmlns="http://www.w3.org/2000/svg">
<mask id="mask0_282_1011" style="mask-type:alpha" maskUnits="userSpaceOnUse" x="0" y="0" width="35" height="34">
<rect x="0.799805" y="0.399902" width="33.6" height="33.6" fill="#D9D9D9"/>
</mask>
<g mask="url(#mask0_282_1011)">
<path d="M6.39961 4.59985L9.19961 10.1999H13.3996L10.5996 4.59985H13.3996L16.1996 10.1999H20.3996L17.5996 4.59985H20.3996L23.1996 10.1999H27.3996L24.5996 4.59985H28.7996C29.5696 4.59985 30.2288 4.87402 30.7771 5.42235C31.3254 5.97069 31.5996 6.62985 31.5996 7.39985V26.9999C31.5996 27.7699 31.3254 28.429 30.7771 28.9774C30.2288 29.5257 29.5696 29.7999 28.7996 29.7999H6.39961C5.62961 29.7999 4.97044 29.5257 4.42211 28.9774C3.87378 28.429 3.59961 27.7699 3.59961 26.9999V7.39985C3.59961 6.62985 3.87378 5.97069 4.42211 5.42235C4.97044 4.87402 5.62961 4.59985 6.39961 4.59985ZM6.39961 12.9999V26.9999H28.7996V12.9999H6.39961ZM11.9996 25.5999H23.1996V24.8299C23.1996 23.8032 22.6863 22.9749 21.6596 22.3449C20.6329 21.7149 19.2796 21.3999 17.5996 21.3999C15.9196 21.3999 14.5663 21.7149 13.5396 22.3449C12.5129 22.9749 11.9996 23.8032 11.9996 24.8299V25.5999ZM17.5996 19.9999C18.3696 19.9999 19.0288 19.7257 19.5771 19.1774C20.1254 18.629 20.3996 17.9699 20.3996 17.1999C20.3996 16.4299 20.1254 15.7707 19.5771 15.2224C19.0288 14.674 18.3696 14.3999 17.5996 14.3999C16.8296 14.3999 16.1704 14.674 15.6221 15.2224C15.0738 15.7707 14.7996 16.4299 14.7996 17.1999C14.7996 17.9699 15.0738 18.629 15.6221 19.1774C16.1704 19.7257 16.8296 19.9999 17.5996 19.9999Z" fill="#1F1F1F"/>
</g>
</svg>
