<svg width="35" height="34" viewBox="0 0 35 34" fill="none" xmlns="http://www.w3.org/2000/svg">
<mask id="mask0_282_1001" style="mask-type:alpha" maskUnits="userSpaceOnUse" x="0" y="0" width="35" height="34">
<rect x="0.799805" y="0.399902" width="33.6" height="33.6" fill="#D9D9D9"/>
</mask>
<g mask="url(#mask0_282_1001)">
<path d="M10.5996 12.3L13.3996 9.50005L10.5996 6.70005L7.79961 9.50005L10.5996 12.3ZM6.39961 20C5.62961 20 4.97044 19.7259 4.42211 19.1776C3.87378 18.6292 3.59961 17.9701 3.59961 17.2001V4.60005C3.59961 3.83005 3.87378 3.17088 4.42211 2.62255C4.97044 2.07422 5.62961 1.80005 6.39961 1.80005H28.7996C29.5696 1.80005 30.2288 2.07422 30.7771 2.62255C31.3254 3.17088 31.5996 3.83005 31.5996 4.60005V17.2001C31.5996 17.9701 31.3254 18.6292 30.7771 19.1776C30.2288 19.7259 29.5696 20 28.7996 20H24.2846C24.4246 19.5334 24.5179 19.0667 24.5646 18.6C24.6113 18.1334 24.6113 17.6667 24.5646 17.2001H28.7996V4.60005H6.39961V17.2001H10.6346C10.5879 17.6667 10.5879 18.1334 10.6346 18.6C10.6813 19.0667 10.7746 19.5334 10.9146 20H6.39961ZM23.8996 10.2C24.4829 10.2 24.9788 9.99588 25.3871 9.58755C25.7954 9.17922 25.9996 8.68338 25.9996 8.10005C25.9996 7.51672 25.7954 7.02088 25.3871 6.61255C24.9788 6.20422 24.4829 6.00005 23.8996 6.00005C23.3163 6.00005 22.8204 6.20422 22.4121 6.61255C22.0038 7.02088 21.7996 7.51672 21.7996 8.10005C21.7996 8.68338 22.0038 9.17922 22.4121 9.58755C22.8204 9.99588 23.3163 10.2 23.8996 10.2ZM7.79961 32.6001V29.66C7.79961 28.8434 8.02711 28.0851 8.48211 27.385C8.93711 26.685 9.53794 26.16 10.2846 25.81C11.4279 25.2734 12.6179 24.8709 13.8546 24.6026C15.0913 24.3342 16.3396 24.2001 17.5996 24.2001C18.8596 24.2001 20.1079 24.3342 21.3446 24.6026C22.5813 24.8709 23.7713 25.2734 24.9146 25.81C25.6613 26.16 26.2621 26.685 26.7171 27.385C27.1721 28.0851 27.3996 28.8434 27.3996 29.66V32.6001H7.79961ZM10.5996 29.8001H24.5996V29.66C24.5996 29.3801 24.5179 29.1234 24.3546 28.8901C24.1913 28.6567 23.9813 28.4817 23.7246 28.3651C22.7446 27.9217 21.7413 27.5834 20.7146 27.35C19.6879 27.1167 18.6496 27 17.5996 27C16.5496 27 15.5113 27.1167 14.4846 27.35C13.4579 27.5834 12.4546 27.9217 11.4746 28.3651C11.2179 28.4817 11.0079 28.6567 10.8446 28.8901C10.6813 29.1234 10.5996 29.3801 10.5996 29.66V29.8001ZM17.5996 22.8001C16.2463 22.8001 15.0913 22.3217 14.1346 21.3651C13.1779 20.4084 12.6996 19.2534 12.6996 17.9C12.6996 16.5467 13.1779 15.3917 14.1346 14.4351C15.0913 13.4784 16.2463 13 17.5996 13C18.9529 13 20.1079 13.4784 21.0646 14.4351C22.0213 15.3917 22.4996 16.5467 22.4996 17.9C22.4996 19.2534 22.0213 20.4084 21.0646 21.3651C20.1079 22.3217 18.9529 22.8001 17.5996 22.8001ZM17.5996 20C18.1829 20 18.6788 19.7959 19.0871 19.3876C19.4954 18.9792 19.6996 18.4834 19.6996 17.9C19.6996 17.3167 19.4954 16.8209 19.0871 16.4125C18.6788 16.0042 18.1829 15.8 17.5996 15.8C17.0163 15.8 16.5204 16.0042 16.1121 16.4125C15.7038 16.8209 15.4996 17.3167 15.4996 17.9C15.4996 18.4834 15.7038 18.9792 16.1121 19.3876C16.5204 19.7959 17.0163 20 17.5996 20Z" fill="#1F1F1F"/>
</g>
</svg>
