<svg width="35" height="34" viewBox="0 0 35 34" fill="none" xmlns="http://www.w3.org/2000/svg">
<mask id="mask0_282_996" style="mask-type:alpha" maskUnits="userSpaceOnUse" x="0" y="0" width="35" height="34">
<rect x="0.799805" y="0.399902" width="33.6" height="33.6" fill="#D9D9D9"/>
</mask>
<g mask="url(#mask0_282_996)">
<path d="M6.39961 28.4C5.62961 28.4 4.97044 28.1258 4.42211 27.5775C3.87378 27.0292 3.59961 26.37 3.59961 25.6V8.8C3.59961 8.03 3.87378 7.37083 4.42211 6.8225C4.97044 6.27417 5.62961 6 6.39961 6H28.7996C29.5696 6 30.2288 6.27417 30.7771 6.8225C31.3254 7.37083 31.5996 8.03 31.5996 8.8V25.6C31.5996 26.37 31.3254 27.0292 30.7771 27.5775C30.2288 28.1258 29.5696 28.4 28.7996 28.4H6.39961ZM6.39961 25.6H28.7996V11.6H6.39961V25.6ZM11.2996 24.2L9.33961 22.24L12.9446 18.6L9.30461 14.96L11.2996 13L16.8996 18.6L11.2996 24.2ZM17.5996 24.2V21.4H25.9996V24.2H17.5996Z" fill="#1F1F1F"/>
</g>
</svg>
